<svg width="44" height="44" viewBox="0 0 44 44" fill="none" xmlns="http://www.w3.org/2000/svg">
<path d="M0 22C0 9.84974 9.84974 0 22 0C34.1503 0 44 9.84974 44 22C44 34.1503 34.1503 44 22 44C9.84974 44 0 34.1503 0 22Z" fill="#F59E0B" fill-opacity="0.12"/>
<path d="M14.6667 23.8333C14.4932 23.8339 14.3231 23.7853 14.1762 23.6931C14.0293 23.6008 13.9116 23.4688 13.8367 23.3123C13.7618 23.1559 13.7329 22.9814 13.7532 22.8091C13.7736 22.6368 13.8424 22.4739 13.9517 22.3392L23.0267 12.9892C23.0948 12.9106 23.1875 12.8575 23.2897 12.8386C23.392 12.8197 23.4976 12.8361 23.5893 12.8851C23.6809 12.9341 23.7532 13.0129 23.7942 13.1084C23.8353 13.2039 23.8426 13.3106 23.815 13.4108L22.055 18.9292C22.0031 19.0681 21.9857 19.2175 22.0042 19.3646C22.0228 19.5117 22.0767 19.6521 22.1614 19.7738C22.2462 19.8955 22.3591 19.9948 22.4907 20.0632C22.6222 20.1316 22.7684 20.1671 22.9167 20.1667H29.3333C29.5068 20.1661 29.6769 20.2147 29.8238 20.3069C29.9707 20.3991 30.0885 20.5312 30.1633 20.6876C30.2382 20.8441 30.2672 21.0186 30.2468 21.1909C30.2264 21.3632 30.1576 21.5261 30.0483 21.6608L20.9733 31.0108C20.9053 31.0894 20.8125 31.1425 20.7103 31.1614C20.6081 31.1803 20.5024 31.1639 20.4108 31.1149C20.3191 31.0658 20.2468 30.9871 20.2058 30.8916C20.1648 30.796 20.1574 30.6894 20.185 30.5892L21.945 25.0708C21.9969 24.9319 22.0143 24.7825 21.9958 24.6354C21.9773 24.4883 21.9233 24.3479 21.8386 24.2262C21.7539 24.1045 21.6409 24.0052 21.5093 23.9368C21.3778 23.8683 21.2316 23.8328 21.0833 23.8333H14.6667Z" stroke="#F59E0B" stroke-width="1.83333" stroke-linecap="round" stroke-linejoin="round"/>
</svg>
