<svg width="44" height="44" viewBox="0 0 44 44" fill="none" xmlns="http://www.w3.org/2000/svg">
<path d="M0 22C0 9.84974 9.84974 0 22 0C34.1503 0 44 9.84974 44 22C44 34.1503 34.1503 44 22 44C9.84974 44 0 34.1503 0 22Z" fill="#FE0149" fill-opacity="0.12"/>
<path d="M14.6667 24.75C14.6667 24.75 15.5834 23.8334 18.3334 23.8334C21.0834 23.8334 22.9167 25.6667 25.6667 25.6667C28.4167 25.6667 29.3334 24.75 29.3334 24.75V13.75C29.3334 13.75 28.4167 14.6667 25.6667 14.6667C22.9167 14.6667 21.0834 12.8334 18.3334 12.8334C15.5834 12.8334 14.6667 13.75 14.6667 13.75V24.75Z" stroke="#FE0149" stroke-width="1.83333" stroke-linecap="round" stroke-linejoin="round"/>
<path d="M14.6667 31.1667V24.75" stroke="#FE0149" stroke-width="1.83333" stroke-linecap="round" stroke-linejoin="round"/>
</svg>
