<svg width="32" height="40" viewBox="0 0 32 40" fill="none" xmlns="http://www.w3.org/2000/svg">
<path d="M7.30078 0C8.93863 0 11.5598 0.547872 15.1631 1.64453C18.9482 2.77771 21.7688 3.34469 23.625 3.34473C25.5186 3.34473 27.0146 2.92436 28.1123 2.08301C29.1815 1.2635 30.7084 0.766164 31.8145 1.53516C31.0138 6.79896 28.2113 9.43148 23.4072 9.43164C21.9514 9.43164 19.9308 9.19397 17.3467 8.71875C14.1442 7.91463 7.90338 6.58041 6.70117 6.58008C6.30081 6.58008 5.95426 6.74424 5.66309 7.07324C5.54171 7.19666 7.20852 10.1606 9.18457 13.5967L9.53223 10.8047C11.4246 9.89097 13.0075 9.43368 14.2812 9.43359C15.5551 9.43359 16.6111 9.54336 17.4482 9.7627L16.5742 15.6299H24.709C25.0366 16.3975 25.2002 17.1468 25.2002 17.8779C25.2002 18.609 24.8546 19.2304 24.1631 19.7422C23.4716 20.2173 22.5983 20.455 21.543 20.4551H15.8105L15.2646 22.79C19.8505 24.9833 22.6348 26.3955 22.6348 30.709C22.6347 33.9623 21.779 36.2656 20.0684 37.6182C18.3578 38.9339 16.3379 39.5918 14.0088 39.5918C11.6794 39.5918 9.8774 39.0067 8.60352 37.8369C7.32979 36.6306 6.69336 35.0403 6.69336 33.0664C6.69338 32.7375 6.729 32.3172 6.80176 31.8057L8.27637 20.4551H3.14453C3.36291 18.3715 3.54484 16.7631 3.69043 15.6299H6.49805C3.09585 11.5405 0.000659454 7.38079 0 6.44531C0 4.36912 0.440375 3.01585 1.67773 1.80957C2.95153 0.603325 4.82605 7.84677e-05 7.30078 0ZM15.0566 24.0156C14.3912 28.4881 14.0377 31.2888 13.9961 32.417C13.9961 33.5048 14.1415 34.2707 14.4326 34.7139C14.7653 35.1569 15.1399 35.3779 15.5557 35.3779C16.5537 35.3779 17.4273 35.0355 18.1758 34.3506C18.9241 33.6254 19.2988 32.4975 19.2988 30.9668C19.2988 27.9449 17.8846 25.6273 15.0566 24.0156Z" fill="#A020F0"/>
</svg>
