<svg width="32" height="44" viewBox="0 0 32 44" fill="none" xmlns="http://www.w3.org/2000/svg">
<path d="M7.30078 2.2041C8.93863 2.2041 11.5598 2.75197 15.1631 3.84863C18.9482 4.98181 21.7688 5.54879 23.625 5.54883C25.5186 5.54883 27.0146 5.12846 28.1123 4.28711C29.1815 3.46761 30.7084 2.97027 31.8145 3.73926C31.0138 9.00306 28.2113 11.6356 23.4072 11.6357C21.9514 11.6357 19.9308 11.3981 17.3467 10.9229C14.1442 10.1187 7.90338 8.78451 6.70117 8.78418C6.30081 8.78418 5.95426 8.94835 5.66309 9.27734C5.54171 9.40076 7.20852 12.3647 9.18457 15.8008L9.53223 13.0088C11.4246 12.0951 13.0075 11.6378 14.2812 11.6377C15.5551 11.6377 16.6111 11.7475 17.4482 11.9668L16.5742 17.834H24.709C25.0365 18.6016 25.2002 19.3509 25.2002 20.082C25.2002 20.8131 24.8546 21.4345 24.1631 21.9463C23.4716 22.4214 22.5983 22.6591 21.543 22.6592H15.8105L15.2646 24.9941C19.8505 27.1874 22.6348 28.5996 22.6348 32.9131C22.6347 36.1664 21.779 38.4697 20.0684 39.8223C18.3578 41.138 16.3379 41.7959 14.0088 41.7959C11.6794 41.7959 9.8774 41.2108 8.60352 40.041C7.32979 38.8347 6.69336 37.2444 6.69336 35.2705C6.69338 34.9416 6.729 34.5213 6.80176 34.0098L8.27637 22.6592H3.14453C3.36291 20.5756 3.54484 18.9672 3.69043 17.834H6.49805C3.09585 13.7446 0.000659454 9.58489 0 8.64941C0 6.57322 0.440375 5.21995 1.67773 4.01367C2.95154 2.80743 4.82605 2.20418 7.30078 2.2041ZM15.0566 26.2197C14.3912 30.6922 14.0377 33.4929 13.9961 34.6211C13.9961 35.7089 14.1415 36.4748 14.4326 36.918C14.7653 37.361 15.1399 37.582 15.5557 37.582C16.5537 37.582 17.4273 37.2396 18.1758 36.5547C18.9241 35.8295 19.2988 34.7016 19.2988 33.1709C19.2988 30.149 17.8846 27.8314 15.0566 26.2197Z" fill="#F5F5F5"/>
</svg>
