<svg width="44" height="44" viewBox="0 0 44 44" fill="none" xmlns="http://www.w3.org/2000/svg">
<path d="M0 22C0 9.84974 9.84974 0 22 0C34.1503 0 44 9.84974 44 22C44 34.1503 34.1503 44 22 44C9.84974 44 0 34.1503 0 22Z" fill="#F59E0B" fill-opacity="0.12"/>
<path d="M24.75 12.8334H16.5C16.0138 12.8334 15.5475 13.0265 15.2037 13.3703C14.8598 13.7142 14.6667 14.1805 14.6667 14.6667V29.3334C14.6667 29.8196 14.8598 30.2859 15.2037 30.6297C15.5475 30.9736 16.0138 31.1667 16.5 31.1667H27.5C27.9863 31.1667 28.4526 30.9736 28.7964 30.6297C29.1402 30.2859 29.3334 29.8196 29.3334 29.3334V17.4167L24.75 12.8334Z" stroke="#F59E0B" stroke-width="1.83333" stroke-linecap="round" stroke-linejoin="round"/>
<path d="M23.8333 12.8334V16.5C23.8333 16.9863 24.0265 17.4526 24.3703 17.7964C24.7141 18.1402 25.1804 18.3334 25.6666 18.3334H29.3333" stroke="#F59E0B" stroke-width="1.83333" stroke-linecap="round" stroke-linejoin="round"/>
<path d="M20.1666 19.25H18.3333" stroke="#F59E0B" stroke-width="1.83333" stroke-linecap="round" stroke-linejoin="round"/>
<path d="M25.6666 22.9166H18.3333" stroke="#F59E0B" stroke-width="1.83333" stroke-linecap="round" stroke-linejoin="round"/>
<path d="M25.6666 26.5834H18.3333" stroke="#F59E0B" stroke-width="1.83333" stroke-linecap="round" stroke-linejoin="round"/>
</svg>
