<svg width="44" height="44" viewBox="0 0 44 44" fill="none" xmlns="http://www.w3.org/2000/svg">
<path d="M0 22C0 9.84974 9.84974 0 22 0C34.1503 0 44 9.84974 44 22C44 34.1503 34.1503 44 22 44C9.84974 44 0 34.1503 0 22Z" fill="#22C55E" fill-opacity="0.12"/>
<path d="M22 12.8333V31.1666" stroke="#22C55E" stroke-width="1.83333" stroke-linecap="round" stroke-linejoin="round"/>
<path d="M26.5833 15.5833H19.7083C18.8574 15.5833 18.0414 15.9213 17.4397 16.523C16.838 17.1247 16.5 17.9407 16.5 18.7916C16.5 19.6425 16.838 20.4586 17.4397 21.0603C18.0414 21.662 18.8574 22 19.7083 22H24.2917C25.1426 22 25.9586 22.338 26.5603 22.9397C27.162 23.5414 27.5 24.3574 27.5 25.2083C27.5 26.0592 27.162 26.8753 26.5603 27.4769C25.9586 28.0786 25.1426 28.4166 24.2917 28.4166H16.5" stroke="#22C55E" stroke-width="1.83333" stroke-linecap="round" stroke-linejoin="round"/>
</svg>
