<svg width="44" height="44" viewBox="0 0 44 44" fill="none" xmlns="http://www.w3.org/2000/svg">
<path d="M0 22C0 9.84974 9.84974 0 22 0C34.1503 0 44 9.84974 44 22C44 34.1503 34.1503 44 22 44C9.84974 44 0 34.1503 0 22Z" fill="#3B82F6" fill-opacity="0.12"/>
<path d="M30.25 24.75C30.25 25.2362 30.0568 25.7025 29.713 26.0464C29.3692 26.3902 28.9029 26.5833 28.4167 26.5833H17.4167L13.75 30.25V15.5833C13.75 15.0971 13.9432 14.6308 14.287 14.287C14.6308 13.9432 15.0971 13.75 15.5833 13.75H28.4167C28.9029 13.75 29.3692 13.9432 29.713 14.287C30.0568 14.6308 30.25 15.0971 30.25 15.5833V24.75Z" stroke="#3B82F6" stroke-width="1.83333" stroke-linecap="round" stroke-linejoin="round"/>
</svg>
