<svg width="44" height="44" viewBox="0 0 44 44" fill="none" xmlns="http://www.w3.org/2000/svg">
<path d="M0 22C0 9.84974 9.84974 0 22 0C34.1503 0 44 9.84974 44 22C44 34.1503 34.1503 44 22 44C9.84974 44 0 34.1503 0 22Z" fill="#A020F0" fill-opacity="0.12"/>
<path d="M25.6667 30.25V28.4167C25.6667 27.4442 25.2804 26.5116 24.5927 25.8239C23.9051 25.1363 22.9725 24.75 22 24.75H16.5C15.5275 24.75 14.5949 25.1363 13.9073 25.8239C13.2197 26.5116 12.8333 27.4442 12.8333 28.4167V30.25" stroke="#A020F0" stroke-width="1.83333" stroke-linecap="round" stroke-linejoin="round"/>
<path d="M19.25 21.0833C21.2751 21.0833 22.9167 19.4417 22.9167 17.4167C22.9167 15.3916 21.2751 13.75 19.25 13.75C17.225 13.75 15.5833 15.3916 15.5833 17.4167C15.5833 19.4417 17.225 21.0833 19.25 21.0833Z" stroke="#A020F0" stroke-width="1.83333" stroke-linecap="round" stroke-linejoin="round"/>
<path d="M31.1667 30.25V28.4166C31.1661 27.6042 30.8956 26.815 30.3979 26.1729C29.9002 25.5308 29.2033 25.0722 28.4167 24.8691" stroke="#A020F0" stroke-width="1.83333" stroke-linecap="round" stroke-linejoin="round"/>
<path d="M25.6667 13.8691C26.4554 14.0711 27.1544 14.5298 27.6537 15.1729C28.1529 15.8161 28.4238 16.6071 28.4238 17.4212C28.4238 18.2354 28.1529 19.0264 27.6537 19.6695C27.1544 20.3127 26.4554 20.7714 25.6667 20.9733" stroke="#A020F0" stroke-width="1.83333" stroke-linecap="round" stroke-linejoin="round"/>
</svg>
