<svg width="44" height="44" viewBox="0 0 44 44" fill="none" xmlns="http://www.w3.org/2000/svg">
<path d="M0 22C0 9.84974 9.84974 0 22 0C34.1503 0 44 9.84974 44 22C44 34.1503 34.1503 44 22 44C9.84974 44 0 34.1503 0 22Z" fill="#A020F0" fill-opacity="0.12"/>
<path d="M16.5 12.8334L13.75 16.5V29.3334C13.75 29.8196 13.9432 30.2859 14.287 30.6297C14.6308 30.9736 15.0971 31.1667 15.5833 31.1667H28.4167C28.9029 31.1667 29.3692 30.9736 29.713 30.6297C30.0568 30.2859 30.25 29.8196 30.25 29.3334V16.5L27.5 12.8334H16.5Z" stroke="#A020F0" stroke-width="1.83333" stroke-linecap="round" stroke-linejoin="round"/>
<path d="M13.75 16.5H30.25" stroke="#A020F0" stroke-width="1.83333" stroke-linecap="round" stroke-linejoin="round"/>
<path d="M25.6667 20.1666C25.6667 21.1391 25.2804 22.0717 24.5927 22.7594C23.9051 23.447 22.9725 23.8333 22 23.8333C21.0275 23.8333 20.0949 23.447 19.4073 22.7594C18.7197 22.0717 18.3333 21.1391 18.3333 20.1666" stroke="#A020F0" stroke-width="1.83333" stroke-linecap="round" stroke-linejoin="round"/>
</svg>
